<svg width="332" height="329" viewBox="0 0 332 329" fill="none" xmlns="http://www.w3.org/2000/svg">
<path d="M35.1382 12H97.4517C100.419 104.618 97.8626 290.816 63.8983 294.661C21.4429 299.468 9.1172 230.245 12.541 183.135M202.905 131.218C204.275 91.4784 197.427 12 159.08 12C120.734 12 119.364 126.09 123.473 183.135C125.299 229.925 134.977 322.158 159.08 316.774C189.21 310.044 202.905 188.904 202.905 233.13M218.655 12H245.361M302.196 12H245.361M245.361 12C245.361 57.8283 224.133 133.141 234.405 183.135C244.676 233.13 306.305 351.386 320 245.628" stroke="#FACB23" stroke-width="24" stroke-linecap="round"/>
</svg>
